<?xml version="1.0" encoding="UTF-8" standalone="no"?>
<!-- Created with Inkscape (http://www.inkscape.org/) -->

<svg
   xmlns:dc="http://purl.org/dc/elements/1.1/"
   xmlns:cc="http://creativecommons.org/ns#"
   xmlns:rdf="http://www.w3.org/1999/02/22-rdf-syntax-ns#"
   xmlns:svg="http://www.w3.org/2000/svg"
   xmlns="http://www.w3.org/2000/svg"
   xmlns:sodipodi="http://sodipodi.sourceforge.net/DTD/sodipodi-0.dtd"
   xmlns:inkscape="http://www.inkscape.org/namespaces/inkscape"
   width="210mm"
   height="297mm"
   viewBox="0 0 210 297"
   version="1.1"
   id="svg8"
   inkscape:version="0.92.2 (5c3e80d, 2017-08-06)"
   sodipodi:docname="Characters.svg">
  <defs
     id="defs2" />
  <sodipodi:namedview
     id="base"
     pagecolor="#ffffff"
     bordercolor="#666666"
     borderopacity="1.0"
     inkscape:pageopacity="0.0"
     inkscape:pageshadow="2"
     inkscape:zoom="0.093196082"
     inkscape:cx="-6284.0354"
     inkscape:cy="-901.99248"
     inkscape:document-units="mm"
     inkscape:current-layer="layer1"
     showgrid="false"
     showborder="false"
     showguides="true"
     inkscape:measure-start="0,0"
     inkscape:measure-end="0,0"
     inkscape:window-width="1920"
     inkscape:window-height="1017"
     inkscape:window-x="-8"
     inkscape:window-y="1"
     inkscape:window-maximized="1" />
  <metadata
     id="metadata5">
    <rdf:RDF>
      <cc:Work
         rdf:about="">
        <dc:format>image/svg+xml</dc:format>
        <dc:type
           rdf:resource="http://purl.org/dc/dcmitype/StillImage" />
        <dc:title></dc:title>
      </cc:Work>
    </rdf:RDF>
  </metadata>
  <g
     inkscape:label="Layer 1"
     inkscape:groupmode="layer"
     id="layer1">
    <path
       style="opacity:1;fill:#1a1a1a;fill-opacity:1;stroke:#000000;stroke-width:0.69999999;stroke-miterlimit:4;stroke-dasharray:none;stroke-opacity:1"
       d="m -2167.5136,-358.24051 c 16.5306,119.52005 78.0086,-282.37949 172.9566,196.62869 15.5048,78.220824 74.635,-194.32726 58.1045,-313.84732 -16.5306,-119.52003 -38.9761,-129.89806 -117.9668,-118.97304 -78.9908,10.925 -129.6248,116.67162 -113.0943,236.19167 z"
       id="path966"
       inkscape:connector-curvature="0"
       sodipodi:nodetypes="sssss" />
    <rect
       style="opacity:1;fill:#000000;fill-opacity:1;stroke:#000000;stroke-width:0.69999999;stroke-miterlimit:4;stroke-dasharray:none;stroke-opacity:1"
       id="rect815"
       width="356.80951"
       height="66.523811"
       x="102.57078"
       y="283.57626"
       ry="16.036171" />
    <path
       style="opacity:1;fill:#000000;fill-opacity:1;stroke:#000000;stroke-width:0.69999999;stroke-miterlimit:4;stroke-dasharray:none;stroke-opacity:1"
       d="m 385.46502,-308.56394 c -2.56297,8.68232 -23.08569,22.22462 -26.72648,29.94627 -3.64078,7.72165 -17.61391,47.42027 -22.19672,53.9867 -5.23948,111.08779 7.36022,87.99698 -60.10172,51.40475 -4.58281,-6.56642 -30.65118,-37.19362 -34.29196,-44.91527 -3.64078,-7.72165 -6.7766,-15.97227 -9.33957,-24.6546 -2.56297,-8.68232 -4.55309,-17.79635 -5.90246,-27.2448 -1.34938,-9.44845 -2.05801,-19.23132 -2.05801,-29.25135 0,-10.02002 0.70863,-19.80289 2.05801,-29.25134 1.34937,-9.44845 3.33949,-18.56248 5.90246,-27.24481 2.56297,-8.68232 5.69879,-16.93295 9.33957,-24.65459 3.64079,-7.72165 7.78653,-14.91433 12.36935,-21.48075 4.58281,-6.56642 9.6027,-12.5066 14.99177,-17.72324 5.38907,-5.21664 11.14731,-9.70976 17.20685,-13.38207 6.05954,-3.67232 12.42037,-6.52383 19.01461,-8.45726 6.59423,-1.93344 13.42186,-2.94879 20.415,-2.94879 6.99314,0 13.82077,1.01535 20.41501,2.94879 100.53998,24.84206 130.28611,83.86385 38.90429,132.92236 z"
       id="path817"
       inkscape:connector-curvature="0"
       sodipodi:nodetypes="csccsssssssssssscc" />
    <ellipse
       style="opacity:1;fill:#000000;fill-opacity:1;stroke:#000000;stroke-width:0.69999999;stroke-miterlimit:4;stroke-dasharray:none;stroke-opacity:1"
       id="path820"
       cx="405.14276"
       cy="-369.00647"
       rx="57.830357"
       ry="93.571487" />
    <ellipse
       ry="82.461143"
       rx="42.778721"
       cy="-369.38443"
       cx="412.70227"
       id="ellipse822"
       style="opacity:1;fill:#ffffff;fill-opacity:1;stroke:#000000;stroke-width:0.56518012;stroke-miterlimit:4;stroke-dasharray:none;stroke-opacity:1" />
    <path
       style="opacity:1;fill:#000000;fill-opacity:1;stroke:#000000;stroke-width:0.17905246;stroke-miterlimit:4;stroke-dasharray:none;stroke-opacity:1"
       d="m 418.33875,-398.86658 c 0,10.16107 -8.61567,18.39825 -19.24364,18.39825 -10.62797,0 -19.24364,-8.23718 -19.24364,-18.39825 0,-10.16108 9.37162,0.50055 19.99959,0.50055 10.62797,0 18.48769,-10.66163 18.48769,-0.50055 z"
       id="ellipse824"
       inkscape:connector-curvature="0"
       sodipodi:nodetypes="sssss" />
    <path
       sodipodi:nodetypes="sssss"
       inkscape:connector-curvature="0"
       id="path827"
       d="m 446.90916,-406.89962 c 1.44882,6.31854 -2.73424,12.66918 -9.34312,14.18457 -6.60887,1.51538 -13.14091,-2.37834 -14.58973,-8.69688 -1.44881,-6.31855 5.899,-1.02499 12.50788,-2.54037 6.60887,-1.51539 9.97616,-9.26587 11.42497,-2.94732 z"
       style="opacity:1;fill:#000000;fill-opacity:1;stroke:#000000;stroke-width:0.11423109;stroke-miterlimit:4;stroke-dasharray:none;stroke-opacity:1" />
    <circle
       style="opacity:1;fill:#ffffff;fill-opacity:1;stroke:#000000;stroke-width:0.4300006;stroke-miterlimit:4;stroke-dasharray:none;stroke-opacity:1"
       id="path832"
       cx="403.63086"
       cy="-391.14044"
       r="5.8046427" />
    <circle
       r="3.6177855"
       cy="-398.69998"
       cx="435.38086"
       id="circle834"
       style="opacity:1;fill:#ffffff;fill-opacity:1;stroke:#000000;stroke-width:0.26800096;stroke-miterlimit:4;stroke-dasharray:none;stroke-opacity:1" />
    <rect
       style="opacity:1;fill:#000000;fill-opacity:1;stroke:#000000;stroke-width:0.65791935;stroke-miterlimit:4;stroke-dasharray:none;stroke-opacity:1"
       id="rect836"
       width="9.1135092"
       height="42.375412"
       x="413.0592"
       y="-346.93829"
       ry="8.0042448" />
    <rect
       ry="8.0042448"
       y="-368.10495"
       x="425.15445"
       height="42.375412"
       width="9.1135092"
       id="rect838"
       style="opacity:1;fill:#000000;fill-opacity:1;stroke:#000000;stroke-width:0.65791935;stroke-miterlimit:4;stroke-dasharray:none;stroke-opacity:1" />
    <rect
       style="opacity:1;fill:#000000;fill-opacity:1;stroke:#000000;stroke-width:0.65791935;stroke-miterlimit:4;stroke-dasharray:none;stroke-opacity:1"
       id="rect840"
       width="9.1135092"
       height="42.375412"
       x="400.96399"
       y="-359.03351"
       ry="8.0042448" />
    <g
       id="g864"
       transform="matrix(0.90038222,-0.65959675,0.70630338,0.98524743,377.91534,-482.10943)">
      <path
         style="opacity:1;fill:#e3dedb;fill-opacity:1;stroke:none;stroke-width:1.07373703;stroke-miterlimit:4;stroke-dasharray:none;stroke-opacity:1"
         d="m -206.16374,-38.548031 a 68.960518,62.778405 40.435371 0 0 -79.7677,-55.954931 68.960518,62.778405 40.435371 0 0 -49.62865,73.733081 68.960518,62.778405 40.435371 0 0 2.1679,7.178891 68.960518,62.778405 40.435371 0 1 50.89715,-66.125137 68.960518,62.778405 40.435371 0 1 77.59987,48.773802 68.960518,62.778405 40.435371 0 0 -1.26857,-7.605706 z"
         id="path853"
         inkscape:connector-curvature="0" />
      <path
         id="path857"
         transform="scale(0.26458333)"
         d="m -1038.2949,-369.32031 a 260.63818,237.27271 40.435371 0 0 -42.3906,2.14453 260.63818,237.27271 40.435371 0 0 -187.5723,278.67578 260.63818,237.27271 40.435371 0 0 0.2187,0.740234 260.63818,237.27271 40.435371 0 1 192.1485,-250.669924 260.63818,237.27271 40.435371 0 1 301.48435,211.48242 260.63818,237.27271 40.435371 0 0 -4.79492,-28.74609 260.63818,237.27271 40.435371 0 0 -259.09373,-213.62695 z"
         style="opacity:1;fill:#000000;fill-opacity:1;stroke:#000000;stroke-width:4.05821848;stroke-miterlimit:4;stroke-dasharray:none;stroke-opacity:1"
         inkscape:connector-curvature="0" />
    </g>
    <path
       style="opacity:1;fill:#000000;fill-opacity:1;stroke:none;stroke-width:0.69999999;stroke-miterlimit:4;stroke-dasharray:none;stroke-opacity:1"
       d="m 201.81818,-125.68229 c -49.06328,-8.78542 -89.49871,-45.89102 -135.505643,-48.37579 -11.50793,-58.28009 -46.75469,7.69094 -46.77217,-35.0123 0,-14.09665 22.2025,-23.53356 35.26424,-23.26779 18.85966,0.38375 40.708947,10.17159 54.805583,10.17159 14.09665,0 37.54955,-6.5806 46.78751,2.65735 9.23796,9.23796 29.91884,-13.81404 45.42048,93.82694 z"
       id="path869"
       inkscape:connector-curvature="0"
       sodipodi:nodetypes="cccsssc" />
    <path
       style="opacity:1;fill:#e3dbdb;fill-opacity:1;stroke:#e3dbdb;stroke-width:0.53649437;stroke-miterlimit:4;stroke-dasharray:none;stroke-opacity:1"
       d="M 266.84257,-26.112007 C 126.00791,-63.415398 72.375232,-16.540448 74.77895,81.941891 75.987702,131.46518 17.710285,-6.4407882 17.710285,-38.278933 c 0,-31.838146 117.648915,-47.300474 183.372965,-27.520431 78.93006,23.754477 133.28898,-16.096978 134.4714,-10.928422 1.18244,5.168564 -50.81163,55.357133 -68.71208,50.615779 z"
       id="path881"
       inkscape:connector-curvature="0"
       sodipodi:nodetypes="ssssss" />
    <path
       style="opacity:1;fill:#000000;fill-opacity:1;stroke:#000000;stroke-width:0.53649437;stroke-miterlimit:4;stroke-dasharray:none;stroke-opacity:1"
       d="m 333.90562,-77.601383 c -7.23539,0.03242 -59.63647,33.666419 -133.6334,11.396598 -65.72404,-19.780051 -183.373245,-4.317998 -183.373245,27.520139 0,27.682038 44.055234,135.545964 54.762659,130.684757 C 54.748333,62.700565 29.645339,-3.8836336 29.645339,-24.779416 c 0,-31.838138 117.649211,-47.300581 183.373241,-27.520538 40.53261,12.198526 74.582,7.623072 98.2816,0.984996 13.37701,-11.648221 23.98489,-23.451864 23.44352,-25.81828 -0.0739,-0.323038 -0.3557,-0.470306 -0.83808,-0.468145 z"
       id="path886"
       inkscape:connector-curvature="0" />
    <g
       id="g1111"
       transform="matrix(1.5651684,0,0,1.4849215,-124.15041,-413.21583)">
      <path
         sodipodi:nodetypes="ccccccccccccccccc"
         inkscape:connector-curvature="0"
         id="rect866"
         d="m -434.82689,-178.36872 h 3.24485 3.24485 3.24483 3.24484 v 101.711312 l 7.30089,105.719653 -10.54573,71.648845 -23.52509,96.70091 h -3.24483 -3.24483 -3.24486 -3.24484 l 23.52508,-96.70091 10.54573,-71.648845 -7.30089,-105.719653 z"
         style="opacity:1;fill:#000000;fill-opacity:1;stroke:#ffffff;stroke-width:1.18069255;stroke-miterlimit:4;stroke-dasharray:none;stroke-opacity:1" />
      <path
         style="opacity:1;fill:#e3dbdb;fill-opacity:1;stroke:#ffffff;stroke-width:0.62434608;stroke-miterlimit:4;stroke-dasharray:none;stroke-opacity:1"
         d="m -230.61686,-272.81981 c -131.97846,-0.28982 -164.97116,87.91153 -135.05793,229.38345 15.0423,71.141224 -74.19224,-106.04771 -83.19278,-152.07984 -9.00054,-46.03215 88.0696,-113.20046 150.33108,-109.6365 74.77176,4.28009 110.37617,-74.0432 112.85683,-67.0208 2.48068,7.02242 -28.16239,99.39053 -44.9372,99.35369 z"
         id="path896"
         inkscape:connector-curvature="0"
         sodipodi:nodetypes="ssssss" />
      <path
         style="opacity:1;fill:#000000;fill-opacity:1;stroke:#ffffff;stroke-width:0.62434608;stroke-miterlimit:4;stroke-dasharray:none;stroke-opacity:1"
         d="m -187.34848,-372.80843 c -6.22947,2.8028 -41.9034,71.39109 -112.00193,67.37849 -62.26147,-3.56398 -159.33194,63.60404 -150.3314,109.63615 7.82562,40.02319 76.30448,179.194062 84.16258,168.08717 -22.86616,-35.919518 -63.33405,-122.62631 -69.24122,-152.83784 -9.00054,-46.03212 88.06981,-113.20071 150.33129,-109.63671 38.39721,2.1979 66.4624,-17.38681 85.02051,-36.01145 8.24125,-21.93654 14.0509,-43.04298 12.91514,-46.25818 -0.15504,-0.43892 -0.43965,-0.54449 -0.85497,-0.35763 z"
         id="path898"
         inkscape:connector-curvature="0" />
    </g>
    <path
       style="opacity:1;fill:#e3dbdb;fill-opacity:1;stroke:#e3dbdb;stroke-width:0.69999999;stroke-miterlimit:4;stroke-dasharray:none;stroke-opacity:1"
       d="m 57.507217,-197.79703 -0.51056,1.78852 c 3.74302,3.57138 7.00721,10.25957 9.31571,21.9506 23.003463,1.24238 44.614123,11.13999 66.606833,21.82518 21.99271,10.68519 44.36746,22.15796 68.89909,26.55068 -1.80334,-12.52213 -3.67765,-23.2554 -5.595,-32.49673 z"
       id="path876"
       inkscape:connector-curvature="0"
       sodipodi:nodetypes="cccsccc" />
    <path
       sodipodi:nodetypes="sssss"
       inkscape:connector-curvature="0"
       id="path1040"
       d="m 115.73006,-903.16486 c 16.53053,119.52006 78.00859,-282.37944 172.95658,196.6287 15.50476,78.22082 74.63497,-194.32727 58.10444,-313.84734 -16.53053,-119.52 -38.97602,-129.898 -117.96676,-118.973 -78.99077,10.925 -129.624762,116.6716 -113.09426,236.19164 z"
       style="opacity:1;fill:#333333;fill-opacity:1;stroke:#000000;stroke-width:0.69999999;stroke-miterlimit:4;stroke-dasharray:none;stroke-opacity:1" />
    <path
       style="opacity:1;fill:#000000;fill-opacity:1;stroke:#000000;stroke-width:0.69999999;stroke-miterlimit:4;stroke-dasharray:none;stroke-opacity:1"
       d="m 179.24212,-1219.8793 c -7.92885,44.0171 32.6903,115.2888 84.1895,177.1591 51.4992,61.87025 113.87846,114.33903 149.46982,120.75015 71.18263,12.82222 -30.07712,-41.0793 -14.21942,-129.11345 15.8577,-88.0342 -21.99923,-220.6764 -93.18196,-233.4986 -71.18272,-12.8223 -110.40024,-23.3313 -126.25794,64.7028 z"
       id="path1042"
       inkscape:connector-curvature="0"
       sodipodi:nodetypes="ssssss" />
    <path
       sodipodi:nodetypes="sssss"
       inkscape:connector-curvature="0"
       id="path1044"
       d="m 200.12012,-1300.3377 c -60.00942,28.2092 -98.28236,212.0698 -74.0106,257.6688 24.27166,45.59903 11.16792,-34.3208 71.17733,-62.5299 60.00942,-28.2091 122.68893,-105.5733 98.41722,-151.1724 -24.2717,-45.599 -35.57455,-72.1756 -95.58395,-43.9665 z"
       style="opacity:1;fill:#000000;fill-opacity:1;stroke:#000000;stroke-width:0.5090158;stroke-miterlimit:4;stroke-dasharray:none;stroke-opacity:1" />
    <path
       inkscape:connector-curvature="0"
       id="path1046"
       d="m 253.54829,-1293.0665 c 17.00753,-0.049 37.39198,4.1875 61.49708,8.7042 12.4066,2.3246 23.78364,8.4967 34.02371,17.575 39.69587,47.8118 57.95424,141.6961 46.18705,209.648 -15.62181,90.2114 84.13162,145.44615 14.00779,132.30681 -24.78146,-4.6434 -62.74583,-32.86687 -100.79126,-71.40227 -11.88015,-12.68454 -23.63816,-26.24694 -34.87029,-40.28354 -50.73317,-63.4005 -90.74779,-136.4351 -82.93689,-181.5408 10.25183,-59.2012 30.4139,-74.9139 62.88281,-75.0074 z"
       style="opacity:1;fill:#808080;fill-opacity:1;stroke:#000000;stroke-width:0.70331359;stroke-miterlimit:4;stroke-dasharray:none;stroke-opacity:1" />
    <path
       style="opacity:1;fill:#f9f9f9;fill-opacity:1;stroke:#cccccc;stroke-width:0.43061262;stroke-miterlimit:4;stroke-dasharray:none;stroke-opacity:1"
       d="m 413.50513,-1001.21 c -3.98823,13.65915 -3.7647,17.61724 -3.7647,26.82327 l 1.40906,9.01838 7.45669,6.75053 c -2.8023,-10.02432 -2.08454,-31.98288 -5.10105,-42.59218 z"
       id="path1048"
       inkscape:connector-curvature="0"
       sodipodi:nodetypes="ccccc" />
    <path
       sodipodi:nodetypes="sssss"
       inkscape:connector-curvature="0"
       id="path1050"
       d="m 179.24212,-1219.8793 c 0,89.451 210.44279,251.7679 282.77115,251.76791 72.32828,0 -36.8832,-35.09661 -36.8832,-124.54761 0,-89.451 -60.77188,-213.2811 -133.10023,-213.2811 -72.32834,0 -112.78772,-3.3902 -112.78772,86.0608 z"
       style="opacity:1;fill:#f9f9f9;fill-opacity:1;stroke:#000000;stroke-width:0.69999999;stroke-miterlimit:4;stroke-dasharray:none;stroke-opacity:1" />
    <circle
       transform="scale(-1,1)"
       r="31.537804"
       cy="-1217.7411"
       cx="-246.0594"
       id="circle1052"
       style="opacity:1;fill:#000000;fill-opacity:1;stroke:#000000;stroke-width:0.69999999;stroke-miterlimit:4;stroke-dasharray:none;stroke-opacity:1" />
    <path
       inkscape:connector-curvature="0"
       id="path1054"
       d="m 367.39984,-1259.9874 a 29.951788,29.951788 0 0 1 0.15918,0.01 c 9.94071,12.719 18.92591,27.4102 26.68312,43.1984 a 29.951788,29.951788 0 0 1 -26.8423,16.6998 29.951788,29.951788 0 0 1 -29.95165,-29.9522 29.951788,29.951788 0 0 1 29.95165,-29.9517 z"
       style="opacity:1;fill:#000000;fill-opacity:1;stroke:#000000;stroke-width:0.66479743;stroke-miterlimit:4;stroke-dasharray:none;stroke-opacity:1" />
    <path
       sodipodi:nodetypes="cccc"
       inkscape:connector-curvature="0"
       id="path1056"
       d="m 357.39791,-991.05936 c -3.98823,13.65918 -5.63559,25.3681 -5.63559,34.57413 l 10.73664,8.01809 c -2.8023,-10.02432 -2.08454,-31.98288 -5.10105,-42.59222 z"
       style="opacity:1;fill:#ffffff;fill-opacity:1;stroke:#000000;stroke-width:0.43061262;stroke-miterlimit:4;stroke-dasharray:none;stroke-opacity:1" />
    <path
       style="opacity:1;fill:#cccccc;fill-opacity:1;stroke:#b3b3b3;stroke-width:0.19519627;stroke-miterlimit:4;stroke-dasharray:none;stroke-opacity:1"
       d="m 339.63023,-1116.2512 c 5.6537,13.4295 21.12363,19.733 34.55306,14.0793 13.42943,-5.6537 -10.6642,-5.739 0.51496,-31.4303 5.81379,-13.3609 -0.32879,-27.1935 -13.75823,-21.5398 -13.42944,5.6536 -26.96348,25.4614 -21.30979,38.8908 z"
       id="path1058"
       inkscape:connector-curvature="0"
       sodipodi:nodetypes="sssss" />
    <path
       sodipodi:nodetypes="sssss"
       inkscape:connector-curvature="0"
       id="path1060"
       d="m 341.16702,-1112.9771 c 5.6537,13.4294 21.12363,19.7329 34.55306,14.0792 13.42943,-5.6537 -10.6642,-5.739 0.51496,-31.4302 5.81379,-13.3609 -0.32879,-27.1936 -13.75823,-21.5399 -13.42944,5.6537 -26.96348,25.4615 -21.30979,38.8909 z"
       style="opacity:1;fill:#000000;fill-opacity:1;stroke:#b3b3b3;stroke-width:0.19519627;stroke-miterlimit:4;stroke-dasharray:none;stroke-opacity:1" />
    <circle
       transform="scale(-1,1)"
       r="11.339286"
       cy="-1209.6554"
       cx="-256.03897"
       id="circle1062"
       style="opacity:1;fill:#ffffff;fill-opacity:1;stroke:#000000;stroke-width:0.69999999;stroke-miterlimit:4;stroke-dasharray:none;stroke-opacity:1" />
    <circle
       transform="scale(-1,1)"
       style="opacity:1;fill:#ffffff;fill-opacity:1;stroke:#000000;stroke-width:0.69999999;stroke-miterlimit:4;stroke-dasharray:none;stroke-opacity:1"
       id="circle1064"
       cx="-363.38419"
       cy="-1218.7268"
       r="11.339286" />
    <path
       sodipodi:nodetypes="ccccccc"
       inkscape:connector-curvature="0"
       id="path1066"
       d="m 214.44745,-1329.6918 c 49.51752,-22.7623 120.07599,-9.683 141.44191,36.7965 2.88247,6.3686 5.25512,20.8156 6.5432,27.7117 -26.9239,-33.8248 -88.8804,-45.8292 -130.60431,-26.6978 -41.71128,19.2341 -65.44566,62.9366 -57.24883,105.4131 -4.41615,-5.4936 -8.14194,-11.482 -11.10552,-17.8498 -21.36584,-46.4797 1.45581,-102.6115 50.97355,-125.3737 z"
       style="opacity:1;fill:#000000;fill-opacity:1;stroke:#000000;stroke-width:0.64150476;stroke-miterlimit:4;stroke-dasharray:none;stroke-opacity:1" />
    <g
       id="g1106"
       transform="translate(-28.10463,-16.059788)">
      <path
         style="opacity:1;fill:#000000;fill-opacity:1;stroke:#000000;stroke-width:0.69999999;stroke-miterlimit:4;stroke-dasharray:none;stroke-opacity:1"
         d="m -1628.2303,-831.53788 c -7.9288,44.01708 32.6903,115.28882 84.1895,177.15908 51.4992,61.87026 113.8785,114.33904 149.4698,120.75016 71.1827,12.82222 -30.0771,-41.0793 -14.2194,-129.11345 15.8577,-88.03415 -21.9992,-220.67641 -93.1819,-233.49864 -71.1828,-12.82222 -110.4003,-23.33129 -126.258,64.70285 z"
         id="path914"
         inkscape:connector-curvature="0"
         sodipodi:nodetypes="ssssss" />
      <path
         sodipodi:nodetypes="sssss"
         inkscape:connector-curvature="0"
         id="path916"
         d="m -1607.3523,-911.99625 c -60.0094,28.20914 -98.2824,212.06975 -74.0106,257.6688 24.2717,45.59899 11.1679,-34.32084 71.1773,-62.52996 60.0095,-28.20912 122.689,-105.57332 98.4173,-151.17236 -24.2717,-45.59904 -35.5746,-72.1756 -95.584,-43.96648 z"
         style="opacity:1;fill:#000000;fill-opacity:1;stroke:#000000;stroke-width:0.5090158;stroke-miterlimit:4;stroke-dasharray:none;stroke-opacity:1" />
      <path
         inkscape:connector-curvature="0"
         id="path933"
         d="m -1553.9241,-904.72507 c 17.0075,-0.049 37.392,4.18749 61.4971,8.70415 12.4066,2.32466 23.7836,8.49678 34.0237,17.57507 39.6959,47.8118 57.9542,141.69608 46.187,209.64793 -15.6218,90.21143 84.1316,145.44618 14.0078,132.30684 -24.7814,-4.6434 -62.7458,-32.86687 -100.7912,-71.40227 -11.8802,-12.68452 -23.6382,-26.24695 -34.8703,-40.28356 -50.7332,-63.40044 -90.7478,-136.43503 -82.9369,-181.54074 10.2518,-59.20125 30.4139,-74.91395 62.8828,-75.00742 z"
         style="opacity:1;fill:#808080;fill-opacity:1;stroke:#000000;stroke-width:0.70331359;stroke-miterlimit:4;stroke-dasharray:none;stroke-opacity:1" />
      <path
         style="opacity:1;fill:#f9f9f9;fill-opacity:1;stroke:#cccccc;stroke-width:0.43061262;stroke-miterlimit:4;stroke-dasharray:none;stroke-opacity:1"
         d="m -1393.9673,-612.86863 c -3.9882,13.65919 -3.7647,17.61728 -3.7647,26.82331 l 1.4091,9.01838 7.4567,6.75053 c -2.8023,-10.02432 -2.0846,-31.98288 -5.1011,-42.59222 z"
         id="path943"
         inkscape:connector-curvature="0"
         sodipodi:nodetypes="ccccc" />
      <path
         sodipodi:nodetypes="sssss"
         inkscape:connector-curvature="0"
         id="path911"
         d="m -1628.2303,-831.53788 c 0,89.45098 210.4428,251.76789 282.7712,251.7679 72.3282,0 -36.8832,-35.09662 -36.8832,-124.5476 0,-89.45098 -60.7719,-213.28108 -133.1003,-213.28108 -72.3283,10e-6 -112.7877,-3.39019 -112.7877,86.06078 z"
         style="opacity:1;fill:#f9f9f9;fill-opacity:1;stroke:#000000;stroke-width:0.69999999;stroke-miterlimit:4;stroke-dasharray:none;stroke-opacity:1" />
      <path
         inkscape:connector-curvature="0"
         id="path918"
         d="m -1592.9508,-829.39973 a 31.537804,31.537804 0 0 0 31.5378,31.53781 31.537804,31.537804 0 0 0 31.5378,-31.53781 31.537804,31.537804 0 0 0 -31.5378,-31.5378 31.537804,31.537804 0 0 0 -31.5378,31.5378 z"
         style="opacity:1;fill:#000000;fill-opacity:1;stroke:#000000;stroke-width:0.69999999;stroke-miterlimit:4;stroke-dasharray:none;stroke-opacity:1" />
      <path
         inkscape:connector-curvature="0"
         id="circle920"
         d="m -1440.0726,-871.64595 a 29.951788,29.951788 0 0 1 0.1592,0.006 c 9.9407,12.71899 18.9259,27.41019 26.6831,43.19838 a 29.951788,29.951788 0 0 1 -26.8423,16.69976 29.951788,29.951788 0 0 1 -29.9516,-29.95218 29.951788,29.951788 0 0 1 29.9516,-29.95165 z"
         style="opacity:1;fill:#000000;fill-opacity:1;stroke:#000000;stroke-width:0.66479743;stroke-miterlimit:4;stroke-dasharray:none;stroke-opacity:1" />
      <path
         sodipodi:nodetypes="cccc"
         inkscape:connector-curvature="0"
         id="rect938"
         d="m -1450.0745,-602.71795 c -3.9882,13.65918 -5.6356,25.3681 -5.6356,34.57413 l 10.7367,8.01809 c -2.8023,-10.02432 -2.0846,-31.98288 -5.1011,-42.59222 z"
         style="opacity:1;fill:#ffffff;fill-opacity:1;stroke:#000000;stroke-width:0.43061262;stroke-miterlimit:4;stroke-dasharray:none;stroke-opacity:1" />
      <path
         style="opacity:1;fill:#cccccc;fill-opacity:1;stroke:#b3b3b3;stroke-width:0.19519627;stroke-miterlimit:4;stroke-dasharray:none;stroke-opacity:1"
         d="m -1467.8422,-727.90974 c 5.6537,13.42944 21.1237,19.73291 34.5531,14.07922 13.4294,-5.65369 -10.6642,-5.73901 0.515,-31.43023 5.8137,-13.3609 -0.3288,-27.19357 -13.7583,-21.53988 -13.4294,5.65369 -26.9635,25.46146 -21.3098,38.89089 z"
         id="path948"
         inkscape:connector-curvature="0"
         sodipodi:nodetypes="sssss" />
      <path
         sodipodi:nodetypes="sssss"
         inkscape:connector-curvature="0"
         id="path945"
         d="m -1466.3054,-724.6357 c 5.6537,13.42944 21.1237,19.73291 34.5531,14.07922 13.4294,-5.65369 -10.6642,-5.73901 0.5149,-31.43023 5.8138,-13.3609 -0.3287,-27.19357 -13.7582,-21.53988 -13.4294,5.65369 -26.9635,25.46146 -21.3098,38.89089 z"
         style="opacity:1;fill:#000000;fill-opacity:1;stroke:#b3b3b3;stroke-width:0.19519627;stroke-miterlimit:4;stroke-dasharray:none;stroke-opacity:1" />
      <circle
         transform="scale(-1,1)"
         r="11.339286"
         cy="-821.31396"
         cx="1551.4335"
         id="path952"
         style="opacity:1;fill:#ffffff;fill-opacity:1;stroke:#000000;stroke-width:0.69999999;stroke-miterlimit:4;stroke-dasharray:none;stroke-opacity:1" />
      <circle
         transform="scale(-1,1)"
         style="opacity:1;fill:#ffffff;fill-opacity:1;stroke:#000000;stroke-width:0.69999999;stroke-miterlimit:4;stroke-dasharray:none;stroke-opacity:1"
         id="circle954"
         cx="1447.0995"
         cy="-833.39661"
         r="11.339286" />
      <path
         sodipodi:nodetypes="ccccccc"
         inkscape:connector-curvature="0"
         id="path956"
         d="m -1593.025,-941.35042 c 49.5176,-22.76228 120.076,-9.68292 141.442,36.79656 2.8824,6.36854 5.2551,20.81559 6.5432,27.71163 -26.9239,-33.82474 -88.8804,-45.82918 -130.6044,-26.69779 -41.7112,19.2341 -65.4456,62.93659 -57.2488,105.41317 -4.4161,-5.49361 -8.1419,-11.48203 -11.1055,-17.8498 -21.3659,-46.47971 1.4558,-102.6115 50.9735,-125.37377 z"
         style="opacity:1;fill:#000000;fill-opacity:1;stroke:#000000;stroke-width:0.64150476;stroke-miterlimit:4;stroke-dasharray:none;stroke-opacity:1" />
      <rect
         transform="matrix(0.85513636,0.51840313,-0.41251889,0.91094905,0,0)"
         ry="4.5555849"
         y="69.094582"
         x="-1830.5951"
         height="29.310324"
         width="90.381592"
         id="rect1080"
         style="opacity:1;fill:#000000;fill-opacity:1;stroke:#000000;stroke-width:0.62265426;stroke-miterlimit:4;stroke-dasharray:none;stroke-opacity:1" />
      <rect
         style="opacity:1;fill:#000000;fill-opacity:1;stroke:#000000;stroke-width:0.59121603;stroke-miterlimit:4;stroke-dasharray:none;stroke-opacity:1"
         id="rect1084"
         width="85.826866"
         height="27.827606"
         x="313.12915"
         y="-1632.2408"
         ry="4.3251319"
         transform="matrix(-0.73177898,0.68154202,0.73105116,0.68232265,0,0)" />
    </g>
    <ellipse
       style="opacity:1;fill:#ffffff;fill-opacity:1;stroke:#000000;stroke-width:6.66549301;stroke-miterlimit:4;stroke-dasharray:none;stroke-opacity:1"
       id="path1113"
       cx="-1643.7788"
       cy="735.62494"
       rx="109.74912"
       ry="190.66051"
       inkscape:export-filename="D:\Projects\Repos\UNITY\Week22 Jam\Project\Assets\Sprites\Bulzabub\bulzabub.png"
       inkscape:export-xdpi="96"
       inkscape:export-ydpi="96" />
    <circle
       style="opacity:1;fill:#ffffff;fill-opacity:1;stroke:#000000;stroke-width:10.39999962;stroke-miterlimit:4;stroke-dasharray:none;stroke-opacity:1"
       id="path1122"
       cx="-1645.1984"
       cy="499.98822"
       r="95.106377"
       inkscape:export-filename="D:\Projects\Repos\UNITY\Week22 Jam\Project\Assets\Sprites\Bulzabub\bulzabub.png"
       inkscape:export-xdpi="96"
       inkscape:export-ydpi="96" />
    <ellipse
       style="opacity:1;fill:#ffffff;fill-opacity:1;stroke:#000000;stroke-width:10.39999962;stroke-miterlimit:4;stroke-dasharray:none;stroke-opacity:1"
       id="path1124"
       cx="-1658.6836"
       cy="477.98602"
       rx="23.421719"
       ry="27.680214"
       inkscape:export-filename="D:\Projects\Repos\UNITY\Week22 Jam\Project\Assets\Sprites\Bulzabub\bulzabub.png"
       inkscape:export-xdpi="96"
       inkscape:export-ydpi="96" />
    <ellipse
       style="opacity:1;fill:#ffffff;fill-opacity:1;stroke:#000000;stroke-width:10.39999962;stroke-miterlimit:4;stroke-dasharray:none;stroke-opacity:1"
       id="path1126"
       cx="-1642.7852"
       cy="217.99069"
       rx="16.324228"
       ry="22.002222"
       transform="rotate(-8.744629)"
       inkscape:export-filename="D:\Projects\Repos\UNITY\Week22 Jam\Project\Assets\Sprites\Bulzabub\bulzabub.png"
       inkscape:export-xdpi="96"
       inkscape:export-ydpi="96" />
    <path
       style="opacity:1;fill:#000000;fill-opacity:1;stroke:#000000;stroke-width:4.98221064;stroke-miterlimit:4;stroke-dasharray:none;stroke-opacity:1"
       d="m -1576.3523,537.64869 c 3.1439,9.9178 -21.8769,-5.12167 -44.4694,-0.88475 -22.5923,4.2369 -34.201,26.14575 -37.345,16.22796 -3.1439,-9.91779 12.6222,-21.39244 35.2146,-25.62935 22.5924,-4.23691 43.4559,0.36835 46.5998,10.28614 z"
       id="path1132"
       inkscape:connector-curvature="0"
       sodipodi:nodetypes="sssss"
       inkscape:export-filename="D:\Projects\Repos\UNITY\Week22 Jam\Project\Assets\Sprites\Bulzabub\bulzabub.png"
       inkscape:export-xdpi="96"
       inkscape:export-ydpi="96" />
  </g>
</svg>
