<?xml version="1.0" encoding="UTF-8" standalone="no"?>
<!-- Created with Inkscape (http://www.inkscape.org/) -->

<svg
   xmlns:dc="http://purl.org/dc/elements/1.1/"
   xmlns:cc="http://creativecommons.org/ns#"
   xmlns:rdf="http://www.w3.org/1999/02/22-rdf-syntax-ns#"
   xmlns:svg="http://www.w3.org/2000/svg"
   xmlns="http://www.w3.org/2000/svg"
   xmlns:sodipodi="http://sodipodi.sourceforge.net/DTD/sodipodi-0.dtd"
   xmlns:inkscape="http://www.inkscape.org/namespaces/inkscape"
   width="210mm"
   height="297mm"
   viewBox="0 0 210 297"
   version="1.1"
   id="svg8"
   inkscape:version="0.92.2 (5c3e80d, 2017-08-06)"
   sodipodi:docname="drawing.svg"
   enable-background="new">
  <defs
     id="defs2" />
  <sodipodi:namedview
     id="base"
     pagecolor="#ffffff"
     bordercolor="#666666"
     borderopacity="1.0"
     inkscape:pageopacity="0.0"
     inkscape:pageshadow="2"
     inkscape:zoom="0.6098796"
     inkscape:cx="322.83412"
     inkscape:cy="463.8778"
     inkscape:document-units="mm"
     inkscape:current-layer="layer1"
     showgrid="false"
     inkscape:window-width="1920"
     inkscape:window-height="1018"
     inkscape:window-x="-8"
     inkscape:window-y="-8"
     inkscape:window-maximized="1" />
  <metadata
     id="metadata5">
    <rdf:RDF>
      <cc:Work
         rdf:about="">
        <dc:format>image/svg+xml</dc:format>
        <dc:type
           rdf:resource="http://purl.org/dc/dcmitype/StillImage" />
        <dc:title></dc:title>
      </cc:Work>
    </rdf:RDF>
  </metadata>
  <g
     inkscape:label="Layer 1"
     inkscape:groupmode="layer"
     id="layer1"
     style="opacity:1;">
    <path
       style="fill:#1a1a1a;stroke-width:0.09511038"
       d="m 66.326394,291.15136 c -0.90097,-0.11049 -1.38562,-0.53685 -1.52098,-1.33803 -0.0501,-0.29629 -0.14466,-0.42296 -0.49682,-0.66525 l -0.43499,-0.29929 0.24644,-0.21198 c 0.13555,-0.11658 0.45285,-0.28427 0.70513,-0.37261 0.25228,-0.0884 0.88204,-0.36059 1.39948,-0.60495 1.03162,-0.4872 1.19919,-0.68628 1.19919,-1.4247 0,-0.98792 -0.7477,-3.01925 -1.93008,-5.24355 -0.73449,-1.38174 -0.84795,-1.53912 -1.92189,-2.66575 -0.62773,-0.65852 -1.57324,-1.71299 -2.10113,-2.34327 -1.40438,-1.67677 -4.38615,-5.70862 -4.29169,-5.80307 0.02,-0.02 0.52345,0.34857 1.11871,0.81913 0.59526,0.47056 1.63868,1.25168 2.31871,1.73584 0.68003,0.48415 1.49479,1.09637 1.81058,1.36049 1.15809,0.96861 1.63862,1.19994 1.91613,0.92242 0.3323,-0.3323 -0.12233,-1.72269 -1.49613,-4.57559 -0.46448,-0.96455 -0.8445,-1.76806 -0.8445,-1.78557 0,-0.0175 0.2247,0.13851 0.49933,0.34673 0.81161,0.61533 0.82746,0.54082 0.13445,-0.63194 -1.05885,-1.79189 -2.26124,-3.25331 -4.94456,-6.00981 -1.037,-1.06529 -1.86166,-1.96069 -1.83257,-1.98977 0.0291,-0.0291 0.65933,0.29504 1.40052,0.7203 1.5347,0.88053 1.69929,0.95147 1.69929,0.73239 0,-0.29674 -0.33829,-0.65421 -2.55865,-2.7037 -1.23443,-1.13944 -2.30316,-2.14282 -2.37495,-2.22973 -0.2475,-0.29964 0.0552,-0.15634 0.90006,0.42613 2.05677,1.41795 3.60267,2.9295 6.28244,6.14286 1.02452,1.22852 1.97197,2.27627 2.13422,2.36017 0.26822,0.1387 0.31145,0.13801 0.53522,-0.009 0.23292,-0.15261 0.24103,-0.18809 0.18794,-0.82138 -0.10302,-1.22882 -1.55201,-5.17759 -4.10507,-11.18706 -0.56236,-1.32371 -1.00597,-2.42326 -0.98579,-2.44344 0.0202,-0.0202 0.55867,0.66696 1.19665,1.52698 0.63798,0.86002 1.20174,1.56367 1.25281,1.56367 0.2005,0 -0.63157,-2.22013 -1.24228,-3.3147 -0.15618,-0.27992 -0.26874,-0.52417 -0.25013,-0.54278 0.0186,-0.0186 0.75972,0.88407 1.6469,2.00596 1.87177,2.36699 2.01518,2.4863 1.51809,1.26296 -0.13069,-0.32163 -0.22148,-0.60092 -0.20175,-0.62064 0.0518,-0.0518 2.0726,2.12045 3.13493,3.36997 0.92658,1.08985 1.94246,2.40505 2.7756,3.59341 0.25672,0.36617 0.51102,0.69722 0.56511,0.73565 0.74101,0.52647 1.75316,-1.41003 2.82009,-5.39555 1.05608,-3.94495 1.58591,-5.72919 1.5959,-5.37425 0.002,0.0785 -0.0364,0.45397 -0.0858,0.83445 -0.20913,1.61025 -0.30015,4.08745 -0.19537,5.31752 0.1222,1.43466 0.20097,1.77891 0.41654,1.82045 0.31621,0.0609 0.48218,-0.71934 0.96909,-4.55608 0.9271,-7.30529 1.81503,-12.34792 2.38625,-13.55168 0.10075,-0.2123 0.25575,-0.35243 0.46697,-0.42214 0.42007,-0.13863 1.15239,-0.79316 1.37446,-1.22843 0.0981,-0.19223 0.20826,-0.50921 0.24488,-0.70439 0.0589,-0.31368 0.16745,-0.4255 0.93527,-0.963 0.47778,-0.33445 0.88041,-0.57631 0.89473,-0.53745 0.0143,0.0389 -0.16566,0.90219 -0.39996,1.91852 -1.98411,8.6066 -3.4448,16.83723 -3.85571,21.72593 -0.14066,1.67341 -0.12927,3.68806 0.0206,3.63812 0.0652,-0.0217 0.83417,-1.70517 1.70893,-3.74101 0.87476,-2.03583 1.59184,-3.65181 1.59352,-3.59106 0.002,0.0607 -0.10086,0.55294 -0.22786,1.09377 -0.4467,1.90219 -0.90815,4.43951 -0.93292,5.12973 -0.0207,0.57658 10e-4,0.70311 0.12738,0.72899 0.16482,0.0339 0.63312,-0.79013 1.04112,-1.83188 0.76649,-1.95709 5.84393,-10.2135 8.24711,-13.41056 1.55282,-2.0658 3.65882,-4.41423 4.23517,-4.72268 0.17764,-0.0951 0.18747,-0.0794 0.13877,0.22069 -0.13541,0.8344 -1.22922,3.39843 -3.03266,7.10894 -1.07603,2.2139 -1.15759,2.34955 -1.75771,2.92367 l -0.62933,0.60206 0.0653,0.60924 c 0.0572,0.5342 0.043,0.6251 -0.11558,0.73807 -0.2968,0.21147 -0.89071,1.04358 -1.14415,1.60305 -0.23369,0.51587 -0.24681,0.65225 -0.1921,1.99732 0.007,0.18308 -0.25045,1.40287 -0.5731,2.71064 -1.08997,4.41791 -1.67599,7.79991 -1.48534,8.57198 0.0738,0.29883 0.13835,0.37389 0.34183,0.39746 0.19893,0.023 0.31801,-0.0557 0.5753,-0.38044 1.1655,-1.47107 1.57002,-1.95004 2.51637,-2.97949 1.30513,-1.41973 5.5503,-5.34961 5.5503,-5.13808 0,0.10907 -2.06097,3.71622 -2.83717,4.96566 -0.89512,1.44086 -1.4747,2.2082 -2.02128,2.67605 -0.65368,0.55953 -0.77262,1.18236 -0.33903,1.77534 0.11884,0.16253 0.0956,0.19603 -0.26067,0.37604 -0.53038,0.26798 -0.68273,0.59804 -0.48951,1.06049 l 0.1456,0.34849 -0.51261,0.55368 c -1.74419,1.88394 -2.81052,5.12613 -2.81347,8.55444 -0.002,1.7653 0.24517,3.03832 0.7096,3.66185 0.13395,0.17984 0.58359,0.46984 1.21538,0.7839 1.0691,0.53143 1.56425,0.96656 1.41116,1.2401 -0.0474,0.0847 -0.31227,0.26307 -0.58864,0.39646 -0.68174,0.32905 -0.78821,0.52534 -0.43172,0.79593 0.36083,0.27387 1.01062,0.93314 1.01062,1.02534 0,0.12062 -0.23682,0.16142 -2.66309,0.45876 -3.20232,0.39244 -5.65176,0.44625 -8.60748,0.18906 -2.73076,-0.23761 -5.24846,-0.25243 -6.61017,-0.0389 -1.38309,0.21685 -2.43407,0.29639 -2.99966,0.22703 z"
       id="path4564"
       inkscape:connector-curvature="0"
       inkscape:export-xdpi="96"
       inkscape:export-ydpi="96" />
    <g
       id="g5124"
       transform="matrix(0.30038035,0,0,0.30038035,-4.471422,256.61676)"
       style=""
       inkscape:export-xdpi="96"
       inkscape:export-ydpi="96">
      <path
         sodipodi:nodetypes="cccccccccccccssccssccsccccscsccsccsscssccccsscscscccscccccccccsccccsccccccsccscsccccssccscccsccccscccsccccccccccccscscc"
         inkscape:connector-curvature="0"
         id="path5109"
         d="m 73.130611,99.066876 c -11.70572,-0.59217 -19.64924,-2.27281 -23.97807,-5.07311 -2.23259,-1.44426 -5.0621,-4.67832 -6.37735,-7.28915 -1.07749,-2.13888 -1.7526,-4.82755 -2.02897,-8.08052 -0.1357,-1.59727 -0.26819,-9.32815 -0.16911,-9.86824 0.0216,-0.11799 0.0329,-2.13718 0.0249,-4.48709 -0.024,-7.097219 0.57679,-12.037539 2.0023,-16.465049 0.50603,-1.57166 0.67817,-1.5791 0.69698,-0.0301 0.0283,2.3294 0.53398,5.03295 1.02445,5.47682 0.22815,0.20647 0.32702,0.21474 0.70337,0.0589 0.65359,-0.27073 1.9225,-1.73765 3.71966,-4.30012 0.88336,-1.25954 1.64636,-2.24995 1.69555,-2.20091 0.0492,0.049 0.12371,0.69207 0.16562,1.42895 0.0419,0.73687 0.11935,1.38294 0.17211,1.4357 0.38507,0.38507 2.18762,-1.20017 4.39167,-3.86222 l 1.05809,-1.27796 0.22585,0.34706 c 0.4416,0.67856 1.19248,1.42226 1.43599,1.42226 0.5262,0 0.72062,-0.45975 0.72062,-1.7041 v -1.18101 l 0.60024,0.44143 c 0.33014,0.24278 0.75314,0.44143 0.94,0.44143 h 0.33975 l -0.29641,0.37683 c -0.63747,0.8104 -0.24406,2.02214 1.40715,4.3342 1.26085,1.76546 1.33143,1.91135 1.21776,2.51726 -0.11749,0.62625 1.799252,0.596819 0.801477,0.814668 0,0 1.716423,-1.752114 -0.801477,-0.814668 -0.32998,0.17659 -0.06097,4.570998 -0.06097,5.058158 0,0.44347 -4.252047,0.648738 -3.479107,0.353548 0.90136,-0.34422 1.98863,-0.33469 2.59914,0.0228 0.59156,0.3464 0.87171,0.89509 2.03939,3.994239 1.16768,3.09914 1.96109,4.71096 2.34452,4.76288 0.56799,0.0769 1.43199,-1.75062 1.79318,-3.79296 0.10085,-0.57028 0.22689,-1.03688 0.28007,-1.03688 0.0532,0 0.26331,0.38615 0.46695,0.85811 0.20364,0.47196 0.45552,0.85689 0.55974,0.85541 0.2512,-0.004 1.50395,-1.52252 3.02726,-3.67051 1.44406,-2.036239 2.7321,-3.477689 3.10757,-3.477689 0.145938,0 0.591898,0.12871 0.991018,0.28603 1.03506,0.40798 1.83371,0.37872 2.33437,-0.0855 0.51033,-0.47321 0.62461,-0.78577 0.8898,-2.43376 0.25114,-1.56069 0.39968,-2.00746 0.81479,-2.4506 0.44168,-0.47149 0.92309,-0.40801 1.49365,0.19696 1.24358,1.31858 2.76244,5.52322 2.76244,7.647219 0,0.39068 0.0932,0.93352 0.20723,1.2063 0.16612,0.39759 0.28622,0.49597 0.60546,0.49597 0.31461,0 0.65767,-0.27027 1.63377,-1.28716 0.67954,-0.707939 1.33339,-1.287159 1.45299,-1.287159 0.36095,0 0.44023,0.40444 0.52471,2.676739 0.0629,1.69248 0.13003,2.22526 0.30194,2.39695 0.18013,0.17992 0.2627,0.18743 0.4462,0.0406 0.12385,-0.0991 0.75927,-1.35584 1.41206,-2.79277 0.65279,-1.43693 1.26478,-2.677239 1.35998,-2.756249 0.12289,-0.10199 0.34789,0.002 0.77598,0.36007 0.73406,0.61329 1.04122,0.62657 1.89971,0.0821 0.85422,-0.54173 1.49963,-1.44048 2.18715,-3.0457 0.63295,-1.4778 1.62977,-2.72438 2.1223,-2.65407 0.692568,0.0989 1.118908,1.94824 1.345238,5.83532 0.13995,2.403699 0.41484,3.447859 1.1321,4.300269 0.30183,0.35871 0.45472,0.4268 0.87815,0.39107 0.3956,-0.0334 0.58509,-0.15106 0.8297,-0.51528 0.51431,-0.76583 -0.7403,-2.283592 -1.15575,-4.390581 -0.4733,-2.40038 0.81247,-2.661018 1.28016,-3.599588 0.70896,-1.4227 0.67058,-1.4306 2.48753,0.51176 1.213,1.29672 1.75361,1.76978 2.23073,1.95199 0.97855,0.37371 1.7314,0.1939 3.0462,-0.72755 1.86168,-1.30473 2.3424,-1.56254 2.91348,-1.56254 0.61757,0 1.21211,0.48307 1.78017,1.44642 0.19291,0.32714 0.42852,0.6217 0.52356,0.65455 0.0951,0.0329 0.78421,-0.0221 1.53148,-0.12207 0.74727,-0.1 1.72649,-0.18539 2.17605,-0.18975 0.72311,-0.007 0.87814,0.0454 1.34422,0.45464 0.6581,0.57783 0.85154,1.03925 1.26968,3.028589 0.40626,1.93285 0.69494,2.65861 1.05749,2.65861 0.14625,0 0.52798,-0.28431 0.84829,-0.63181 0.732,-0.79412 2.85837,-3.657359 3.36536,-4.531579 0.48746,-0.84055 0.85016,-1.16515 1.30192,-1.16515 0.62226,0 1.06892,0.43637 2.14831,2.09888 1.54357,2.377429 1.77904,2.358789 1.95744,-0.15493 0.182,-2.56442 0.373,-4.0157 0.68553,-5.20892 0.33463,-1.27759 1.23162,-3.47743 1.51323,-3.71114 0.22093,-0.18335 -0.251,-1.5606 0,0 0.26971,1.67689 4.5716,3.34611 6.0373,3.35992 0.50375,0.005 -1.33469,0.33838 0,0 1.19549,-0.30309 2.21207,-0.51263 2.25906,-0.46564 0.047,0.047 -0.0478,0.51676 -0.21062,1.04394 -0.35527,1.15023 -0.36084,1.27221 -0.0713,1.56174 0.17777,0.17776 0.56219,0.22474 1.83908,0.22474 1.80003,0 1.4095,0.13595 4.71837,-1.64253 l 1.56203,-0.83957 0.75581,0.81199 c 0.41569,0.4466 0.85841,0.812 0.98383,0.812 0.25912,0 0.60862,-0.73036 0.85548,-1.78772 l 0.16695,-0.71509 0.25944,1.07263 c 0.44573,1.84288 -0.0735,-0.491611 0.16259,0.143019 -1.28385,-5.11289 -0.11344,0 0,0 0.30302,0 2.1675,5.230051 2.79655,2.145271 0.31279,-1.53387 0.60351,-2.88539 0.64604,-3.00338 0.0425,-0.11799 0.22813,0.3433 0.41243,1.02508 0.85112,3.14863 0.84811,0.519649 1.76902,-0.04879 0.61846,-0.38175 2.12778,2.808771 2.42482,0.432831 0.3649,-2.9187 0.76024,-3.76311 1.28147,-2.73709 0.44926,0.88436 0.94999,2.63587 1.7289,6.04757 0.40408,1.76984 0.82638,3.410979 0.93846,3.646949 0.13798,0.2905 0.22501,1.14493 0.26951,2.64584 0.0583,1.96531 0.14868,2.61426 0.79705,5.72072 1.05169,5.03874 1.29791,6.65696 1.39275,9.15348 0.12027,3.1661 -0.0889,4.12925 -1.3509,6.22095 -1.61177,2.6714 -3.39288,5.42743 -4.26612,6.60127 -1.07981,1.45149 -2.94913,3.32761 -3.81804,3.83191 -0.84309,0.48932 -1.13045,0.5568 -4.25071,0.99825 -6.94988,0.98325 -14.27027,1.63006 -20.39394,1.80195 -2.68207,0.0753 -8.12033,0.33089 -12.08502,0.568 -3.9647,0.23711 -9.33236,0.55835 -11.92814,0.71387 -6.27458,0.37592 -12.417608,0.68054 -17.290458,0.8574 -4.49122,0.16301 -18.19503,0.15854 -21.467418,-0.007 z"
         style="fill:#4d4d4d;stroke-width:0.14301801" />
      <path
         sodipodi:nodetypes="ccssccsccccsccsccccccscscccc"
         inkscape:connector-curvature="0"
         id="path5113"
         d="M 79.423399,100.91092 C 67.845061,99.840079 51.409308,95.647239 44.89745,92.103189 c -2.705976,-1.47272 -4.006993,-3.63423 -4.855226,-8.06646 -1.019702,-5.32819 -0.807048,-14.61457 0.501808,-21.91373 0.147373,-0.82186 0.282462,-1.23545 0.388274,-1.18873 0.08925,0.0394 1.340204,0.5563 2.779908,1.14866 10.863453,4.46967 21.831922,7.7138 31.921209,9.44129 6.365957,1.08998 9.242967,1.33287 18.73536,1.58178 4.365627,0.11447 10.608357,0.35181 13.872747,0.52742 4.92442,0.26492 7.54283,0.32049 15.37444,0.32629 6.19342,0.005 10.39816,-0.0559 12.22804,-0.17595 7.61897,-0.49981 12.92515,-1.19384 18.32538,-2.39687 1.36353,-0.30376 3.34441,-0.61023 5.07714,-0.78551 4.89146,-0.4948 6.08943,-0.80607 7.71203,-2.00385 0.52832,-0.39 1.00593,-0.70909 1.06135,-0.70909 0.13296,0 2.07767,6.207136 2.07406,10.368806 -0.002,2.71129 -0.90591,4.596934 -1.11671,5.363174 -0.3924,1.42635 -2.12262,3.06657 -3.36752,4.7196 -1.38623,1.84068 -5.36401,6.05891 -6.28207,6.66179 -1.93281,1.26928 -5.11153,1.95061 -11.68468,2.5045 -1.02579,0.0864 -8.01386,0.20876 -15.58896,0.27289 -15.15307,0.12826 -15.43333,0.14475 -16.48298,0.96964 -0.79018,0.62098 -1.32166,0.85875 -2.64026,1.18118 -1.93162,0.472331 -4.92742,0.510241 -10.98205,0.138961 -6.516287,-0.399591 -8.518283,-0.351031 -10.869371,0.26362 -0.904589,0.2365 -2.148141,0.49884 -2.763446,0.583 -1.28212,0.17536 -6.978224,0.17236 -8.892524,-0.005 z"
         style="fill:#1a1a1a;stroke-width:0.14301801" />
      <path
         inkscape:connector-curvature="0"
         id="path5119"
         d="m 65.870194,69.186371 c -0.597425,-0.575555 -1.19294,-1.415946 -2.342448,-3.305639 -0.426318,-0.700838 -0.940426,-1.382559 -1.14246,-1.514935 -2.389965,-1.565959 -4.074793,-3.017782 -4.763582,-4.104801 -0.387311,-0.611236 -0.390346,-0.634834 -0.155083,-1.204576 0.131978,-0.319619 0.779629,-1.231129 1.439225,-2.02558 3.021923,-3.639762 3.269778,-4.323851 1.8161,-5.012536 -1.030589,-0.488243 -1.958935,-1.134903 -3.473935,-2.419845 -1.232241,-1.04512 -1.373834,-1.127533 -1.678312,-0.976825 -0.392682,0.194365 -1.395349,1.543613 -1.977445,2.660959 -0.2269,0.435544 -0.448846,0.79016 -0.49321,0.788036 -0.04437,-0.0021 -0.348699,-0.389465 -0.676301,-0.860758 -0.327602,-0.471294 -0.777974,-0.936885 -1.000826,-1.03465 -0.60018,-0.263295 -1.191089,0.06707 -1.604499,0.897033 -0.180246,0.361862 -0.522157,1.037386 -0.7598,1.501161 -0.302856,0.591037 -0.432082,1.055328 -0.432082,1.5524 0,0.692206 -0.01631,0.71873 -0.681442,1.108856 -1.636788,0.960028 -4.031354,1.514399 -5.467974,1.265904 -0.392811,-0.06795 -0.742629,-0.149829 -0.777373,-0.181962 -0.153984,-0.142416 -0.525532,-1.808434 -0.669761,-3.00322 -0.239977,-1.987954 0.05053,-4.111415 0.821969,-6.008187 1.743111,-4.285872 5.770258,-7.863228 12.779998,-11.352612 2.006069,-0.998602 2.185252,-1.19447 2.912167,-3.18339 0.472887,-1.29387 0.855404,-2.043525 1.042719,-2.043525 0.06852,0 0.670375,0.464809 1.337445,1.032909 0.66707,0.568101 1.310525,1.032909 1.4299,1.032909 0.306497,0 0.525648,-0.442975 0.523565,-1.058285 -0.0011,-0.28903 -0.201208,-1.300191 -0.44495,-2.247026 -0.710343,-2.759366 -0.63159,-3.02987 0.882073,-3.02987 1.442796,0 2.963842,0.767013 5.058322,2.550747 1.321761,1.125659 1.746499,1.258503 2.431177,0.760399 0.428449,-0.311692 1.272602,-1.753954 1.75912,-3.005504 0.184938,-0.475744 0.392146,-0.896938 0.460463,-0.935987 0.06831,-0.03905 0.544349,0.520625 1.057854,1.243723 0.513502,0.723096 0.998171,1.314722 1.077038,1.314722 0.07887,0 0.413972,-0.240198 0.744674,-0.533774 0.574884,-0.510343 0.663372,-0.540067 2.015923,-0.677182 1.653179,-0.167591 2.944569,-0.534749 4.646636,-1.321093 1.734912,-0.801519 1.833301,-0.96222 1.821023,-2.97435 l -0.0099,-1.626725 0.420362,0.536691 c 0.435454,0.55596 0.915118,0.69854 1.072657,0.318844 0.04971,-0.119815 0.09038,-0.746549 0.09038,-1.392741 v -1.174897 l -0.670097,-0.824445 c -0.368551,-0.453446 -0.670094,-0.880278 -0.670094,-0.94852 0,-0.251556 0.705221,-0.112923 1.348262,0.265048 0.364112,0.214016 1.566651,1.22295 2.672309,2.242073 1.924658,1.774021 2.06737,1.874967 3.350475,2.369881 1.746811,0.673772 2.773511,0.917297 3.875753,0.919305 0.987664,0.0018 1.21212,0.103533 2.334861,1.058248 0.84965,0.722497 1.256781,0.755895 3.10392,0.254629 0.69195,-0.187776 1.37535,-0.342713 1.51868,-0.344303 0.42317,-0.0047 0.30668,0.441478 -0.35222,1.349005 -0.76111,1.048309 -0.72758,1.470038 0.13005,1.636048 1.45173,0.281002 15.83876,-0.09444 17.74751,-0.463132 0.82795,-0.159928 1.85737,-0.566467 4.07274,-1.608394 l 2.96472,-1.394369 0.28289,0.323095 c 0.15558,0.177702 0.28288,0.428929 0.28288,0.558283 0,0.568865 0.47302,1.665901 0.78677,1.824712 0.22605,0.114408 1.33891,0.173046 3.53161,0.186084 2.77227,0.01649 3.35814,0.05872 4.36932,0.314949 1.48449,0.376172 2.9057,1.022372 3.73703,1.699153 0.78982,0.642985 1.12746,0.662705 1.64309,0.09596 0.42375,-0.465764 1.19806,-1.811732 1.48831,-2.587067 0.17151,-0.458192 0.1876,-0.417358 0.43363,1.1003 0.28187,1.738789 0.60656,2.826278 0.95373,3.194376 0.63819,0.676649 1.48468,-0.06414 2.14964,-1.881239 l 0.40774,-1.114201 0.004,1.308354 c 0.004,1.077799 0.0662,1.43062 0.35397,2.002207 0.69096,1.372322 2.30181,2.326906 6.22817,3.690775 2.42709,0.843082 3.73345,1.422674 4.43216,1.966427 l 0.48434,0.376928 -0.0935,1.111954 c -0.0514,0.611572 -0.0405,1.185199 0.0244,1.274726 0.15807,0.218296 1.90016,0.653884 3.48445,0.871235 1.2364,0.16962 1.30449,0.164957 1.73545,-0.118857 0.60172,-0.396272 0.71504,-0.372006 0.3891,0.08333 -0.83392,1.164946 -1.25225,1.920722 -1.25225,2.262318 0,0.334036 0.12289,0.442088 0.93069,0.81831 1.21903,0.56775 2.15335,1.166834 2.35015,1.506921 0.12942,0.223657 0.0557,0.426967 -0.40556,1.118063 -0.49035,0.734755 -0.57084,0.974851 -0.61833,1.844631 -0.0675,1.236133 0.0312,1.532792 1.39441,4.190503 1.24902,2.435144 1.56049,3.402718 1.56049,4.847518 0,0.820595 -0.0752,1.15993 -0.38385,1.732837 -0.45242,0.839657 -1.12348,1.407486 -1.66338,1.407486 -0.87527,0 -2.31071,-2.019904 -3.21443,-4.523203 -0.20081,-0.556218 -0.43229,-1.073449 -0.5144,-1.149401 -0.0999,-0.09231 -0.45048,0.711407 -1.05772,2.424241 -1.15336,3.253337 -1.67937,4.502156 -1.87295,4.44661 -0.0843,-0.02421 -0.27058,-0.257238 -0.41378,-0.517842 -0.21094,-0.383887 -0.2605,-0.839797 -0.26115,-2.401923 -8.2e-4,-1.68554 -0.0383,-1.984989 -0.2989,-2.380318 -0.55658,-0.844287 -1.05523,-0.702936 -1.25637,0.35614 -0.3488,1.836549 -0.88524,2.576384 -1.6381,2.259135 -0.19371,-0.08163 -0.73358,-0.590482 -1.19969,-1.130782 -0.46613,-0.540299 -0.94106,-1.015568 -1.05541,-1.056154 -0.12309,-0.04368 -0.67465,0.329326 -1.35179,0.914181 -1.84746,1.595694 -2.79722,1.902456 -3.23691,1.045493 -0.26644,-0.519289 -0.52329,-2.073285 -0.53052,-3.209717 -0.004,-0.721628 -0.20066,-0.961083 -0.3738,-0.456523 -0.0523,0.152144 -0.38078,0.368705 -0.76566,0.504646 -0.52302,0.184735 -0.78357,0.396265 -1.16196,0.943346 -0.71837,1.038612 -1.31312,1.453086 -2.0851,1.453086 -1.0892,0 -2.18529,-0.923096 -3.76122,-3.167592 -1.76995,-2.520814 -2.0522,-2.877212 -2.39222,-3.020492 -0.83344,-0.351211 -1.4091,0.550574 -1.66439,2.607328 -0.0893,0.719594 -0.22804,3.012655 -0.30826,5.095691 -0.1336,3.468654 -0.26174,4.694671 -0.51517,4.929067 -0.16141,0.149274 -0.77743,-0.669459 -1.6747,-2.225806 -0.47476,-0.823481 -1.06424,-1.705025 -1.30994,-1.958986 l -0.44674,-0.461745 -1.20827,1.270379 c -0.66456,0.698709 -1.82695,1.9521 -2.58311,2.785314 -0.75615,0.833215 -1.42349,1.531937 -1.48297,1.552716 -0.20184,0.07052 -0.57293,-0.447222 -1.50776,-2.103601 -1.49186,-2.643365 -1.29054,-2.488553 -3.37069,-2.592118 -2.80908,-0.139856 -3.7623,-0.494939 -5.79842,-2.159947 -0.64538,-0.527751 -1.27578,-0.96041 -1.40089,-0.961461 -0.477,-0.004 -0.86686,0.442003 -1.49718,1.712878 -0.56485,1.13886 -0.71584,1.334128 -1.12924,1.46031 -1.05243,0.321235 -2.14856,-0.266048 -4.29543,-2.301377 -1.38447,-1.312545 -1.69151,-1.400137 -2.24387,-0.640133 -0.4705,0.647356 -0.54636,1.574892 -0.27487,3.360706 0.36197,2.381018 0.42986,3.769992 0.20841,4.264444 -0.18303,0.408676 -0.19955,0.415018 -0.45148,0.173357 -0.32529,-0.312031 -1.27708,-1.890062 -3.16241,-5.243111 -1.686146,-2.998794 -2.399199,-3.959617 -2.938541,-3.959617 -0.541364,0 -0.740296,0.529642 -0.974335,2.594087 -0.113042,0.997148 -0.245429,1.981123 -0.29419,2.186609 -0.114105,0.480864 -2.207483,2.174234 -2.687832,2.174234 -0.09437,0 -0.481323,-0.588759 -0.859895,-1.308353 -0.378574,-0.719594 -0.781304,-1.308353 -0.894955,-1.308353 -0.14033,0 -0.239722,0.254105 -0.309745,0.791897 -0.155061,1.190934 -0.658458,3.271998 -1.091025,4.510375 l -0.384853,1.101771 -0.119761,-0.821435 c -0.201152,-1.379723 -1.65448,-3.792231 -2.284489,-3.792231 -0.292109,0 -0.918558,0.668601 -1.490201,1.590464 -0.454125,0.732353 -0.508743,0.777815 -0.512771,0.42681 -0.0165,-1.438679 -2.544639,-6.263506 -4.185156,-7.987198 -0.5281,-0.554876 -0.695049,-0.649028 -1.0881,-0.613641 -0.604827,0.05446 -1.173832,0.82931 -2.049375,2.790796 -0.612013,1.3711 -0.679254,1.46172 -1.193103,1.607923 -0.46952,0.133591 -0.71432,0.104287 -1.776984,-0.212721 -0.833255,-0.248572 -1.380362,-0.338719 -1.689114,-0.278316 -1.17954,0.230762 -2.374403,1.621602 -3.836937,4.466261 -1.746097,3.396195 -2.217894,4.210085 -2.904542,5.010609 -0.364996,0.425529 -0.711613,0.773689 -0.770254,0.773689 -0.05865,0 -0.347862,-0.232405 -0.642703,-0.516456 z"
         style="fill:#b3b3b3;stroke-width:0.14320646" />
    </g>
    <g
       id="g5142"
       transform="matrix(0.60587512,0,0,0.60587512,87.168283,218.29331)"
       style=""
       inkscape:export-xdpi="96"
       inkscape:export-ydpi="96">
      <path
         sodipodi:nodetypes="ccsscccccssccscccsccccccccsccccc"
         inkscape:connector-curvature="0"
         id="path5138"
         d="m 104.01206,111.41446 c -1.25856,-0.0704 -3.99378,-0.25853 -6.078265,-0.41795 -2.084485,-0.15943 -5.077137,-0.38776 -6.650336,-0.5074 -1.573199,-0.11964 -5.24161,-0.27853 -8.152027,-0.35309 -5.68683,-0.14569 -9.042085,-0.38487 -13.229166,-0.94302 -4.967616,-0.66219 -10.459654,-1.94196 -14.105374,-3.28686 -3.040507,-1.12165 -6.419533,-2.99231 -8.086643,-4.47684 l -0.667808,-0.59468 -0.764024,-1.088499 c 0.306917,-0.866023 1.361797,-0.622704 1.080818,-5.139184 -0.07815,-1.25617 -0.05296,-1.52166 0.196702,-2.07376 0.688654,-1.52288 2.652858,-3.10208 5.684729,-4.57047 4.246676,-2.05675 7.876934,-3.0471 12.059877,-3.28999 2.852097,-0.16562 4.296198,-0.38666 8.534715,-1.3064 6.81564,-1.47897 9.835856,-1.84419 12.921813,-1.56258 1.807771,0.16496 11.840099,1.6255 19.829319,2.88682 10.80783,1.7063 24.00341,4.01673 32.66471,5.7193 8.89558,1.74861 10.35151,1.82155 22.03968,1.10404 6.5234,-0.40046 13.03973,-0.42541 15.66047,-0.06 1.02258,0.14259 2.4432,0.40733 3.15693,0.58832 1.26643,0.32114 3.15849,0.99956 3.39926,1.21885 0.2606,0.23734 -5.14698,3.60092 -8.41542,5.23449 -1.71646,0.85788 -2.34539,1.09964 -3.1464,1.2095 -2.52116,0.345753 -5.80741,1.773443 -7.79264,3.385473 -1.78406,1.44867 -3.38306,1.86021 -8.76019,2.25457 -6.15846,0.45168 -8.03122,0.86305 -9.76249,2.14446 -0.23598,0.17466 -0.58994,0.35938 -0.78659,0.41048 -0.19665,0.0511 -3.28584,0.15594 -6.86487,0.23298 -10.52438,0.22652 -13.19241,0.49158 -15.75474,1.56521 -1.60884,0.67412 -3.66787,1.19435 -5.984,1.51191 -2.00268,0.27459 -8.91052,0.39001 -12.22804,0.2043 z"
         style="fill:#1a1a1a;stroke-width:0.14301801" />
      <path
         inkscape:connector-curvature="0"
         id="path5128"
         d="m 48.100775,99.247116 c -0.893286,-0.23882 -1.812269,-0.721207 -2.803522,-1.471628 -1.034476,-0.78314 -2.55982,-1.680946 -6.272726,-3.692075 -6.767819,-3.665853 -10.208167,-6.15908 -12.601207,-9.132118 -0.966604,-1.20088 -2.119333,-3.349908 -2.280409,-4.251359 -0.08474,-0.474245 -0.05204,-0.535911 0.465879,-0.878658 3.507972,-2.321464 9.07077,-3.209382 17.771265,-2.836592 2.005827,0.08594 5.99603,0.318765 8.867116,0.517377 9.411025,0.651025 14.126559,0.683297 18.982783,0.12991 1.083145,-0.123428 3.739205,-0.445 5.902354,-0.714605 6.996721,-0.872035 10.114518,-1.085617 13.944255,-0.955236 0.707938,0.0241 3.475338,-0.03673 6.149778,-0.135189 3.869519,-0.142446 7.257729,-0.143549 16.590099,-0.0054 6.45011,0.09548 13.81911,0.234381 16.37556,0.308663 5.75302,0.167169 36.86121,0.459422 43.76351,0.411149 12.47976,-0.08728 12.88624,-0.07149 15.73198,0.611246 1.52591,0.366085 3.30355,1.207645 4.17936,1.978575 0.42174,0.371221 0.84714,0.94642 1.14014,1.541589 0.42663,0.866601 0.46671,1.06244 0.45943,2.245006 -0.0264,4.304027 -3.17957,7.793312 -8.85381,9.79774 -6.40525,2.262653 -17.31489,3.531957 -21.02272,2.445922 -1.81591,-0.531886 -4.07656,-0.775049 -7.22334,-0.776965 -4.36548,-0.0027 -7.44592,0.546553 -12.35743,2.203207 -3.68767,1.243851 -6.52733,1.81991 -10.51829,2.133764 -2.49979,0.19658 -5.24492,0.19388 -11.33108,-0.0112 -4.11015,-0.13847 -5.35942,-0.13275 -7.29392,0.0334 -6.50899,0.559107 -21.572819,-0.3075 -30.278193,-1.741865 -4.998259,-0.823558 -8.394956,-1.752206 -10.706094,-2.927022 -1.74961,-0.889379 -1.953612,-1.08221 -1.846059,-1.74498 0.178311,-1.09881 0.707366,-1.583756 2.704391,-2.478916 2.023531,-0.907042 3.291506,-1.657802 3.2122,-1.901925 -0.176241,-0.542521 -2.235575,-0.863664 -4.893529,-0.763122 -2.509954,0.09494 -3.993896,0.405164 -5.291667,1.106244 -1.586788,0.857213 -3.029627,1.196911 -9.081645,2.138172 -2.084488,0.324196 -4.418979,0.716759 -5.187755,0.872363 -1.463164,0.296148 -3.455799,0.887717 -3.822379,1.134779 -0.259408,0.174832 -0.455388,0.007 3.289413,2.816897 3.292047,2.470171 4.106061,3.130653 4.296156,3.485845 0.121547,0.227107 0.06666,0.282167 -0.397094,0.398337 -0.881425,0.2208 -9.005118,0.31117 -9.7628,0.10861 z"
         style="fill:#999999;stroke-width:0.14301801" />
    </g>
  </g>
</svg>
